<?xml version="1.0" encoding="iso-8859-1"?>
<!-- Uploaded to: SVG Repo, www.svgrepo.com, Generator: SVG Repo Mixer Tools -->
<!DOCTYPE svg PUBLIC "-//W3C//DTD SVG 1.1//EN" "http://www.w3.org/Graphics/SVG/1.1/DTD/svg11.dtd">
<svg fill="#000000" height="800px" width="800px" version="1.1" id="Capa_1" xmlns="http://www.w3.org/2000/svg" xmlns:xlink="http://www.w3.org/1999/xlink" 
	 viewBox="0 0 444 444" xml:space="preserve">
<g>
	<path d="M425.713,108.5h-21.707c-2.876-17.558-18.147-31-36.506-31h-95c-13.785,0-25-11.215-25-25v-15c0-3.313-2.687-6-6-6
		s-6,2.687-6,6v15c0,20.402,16.598,37,37,37h95c11.717,0,21.572,8.104,24.267,19H228v-71c0-3.313-2.687-6-6-6s-6,2.687-6,6v71
		H52.233c2.695-10.896,12.55-19,24.267-19h95c20.402,0,37-16.598,37-37v-15c0-3.313-2.687-6-6-6s-6,2.687-6,6v15
		c0,13.785-11.215,25-25,25h-95c-18.359,0-33.63,13.442-36.506,31H18.287C8.203,108.5,0,116.703,0,126.787v267.426
		C0,404.297,8.203,412.5,18.287,412.5h407.426c10.084,0,18.287-8.203,18.287-18.287V126.787
		C444,116.703,435.797,108.5,425.713,108.5z M18.287,120.5h407.426c3.467,0,6.287,2.82,6.287,6.287V176.5H12v-49.713
		C12,123.32,14.82,120.5,18.287,120.5z M425.713,400.5H18.287c-3.467,0-6.287-2.82-6.287-6.287V188.5h420v205.713
		C432,397.68,429.18,400.5,425.713,400.5z"/>
	<path d="M156.485,335.525L156.485,335.525L156.485,335.525c14.286-14.287,22.154-33.28,22.154-53.483
		c0-20.202-7.868-39.196-22.153-53.481c-14.286-14.286-33.28-22.154-53.482-22.154c-20.203,0-39.197,7.868-53.482,22.153
		c-14.286,14.286-22.154,33.28-22.154,53.482c0,20.203,7.868,39.197,22.153,53.482c14.286,14.286,33.28,22.154,53.483,22.154
		C123.205,357.679,142.199,349.811,156.485,335.525C156.485,335.525,156.485,335.525,156.485,335.525z M58.005,327.039
		c-12.02-12.019-18.639-27.999-18.639-44.997c0-16.997,6.619-32.978,18.64-44.997c12.019-12.02,27.999-18.639,44.997-18.639
		c16.997,0,32.978,6.619,44.996,18.639c0.001,0,0.001,0,0.001,0.001c12.02,12.019,18.639,27.999,18.639,44.996
		c0,14.981-5.148,29.169-14.597,40.554l-29.492-29.491c1.896-3.339,2.924-7.118,2.924-11.062c0-6.002-2.337-11.645-6.581-15.889
		c0,0,0,0-0.001-0.001c-4.244-4.244-9.887-6.581-15.889-6.581s-11.645,2.337-15.888,6.581c-4.245,4.244-6.582,9.887-6.582,15.89
		c0,6.002,2.337,11.645,6.582,15.889c4.243,4.244,9.886,6.582,15.888,6.582c3.944,0,7.723-1.028,11.062-2.924l29.492,29.491
		c-11.385,9.449-25.572,14.597-40.553,14.597C86.005,345.679,70.024,339.06,58.005,327.039z M110.405,289.447
		c-0.001,0.001-0.002,0.002-0.003,0.003c-4.085,4.079-10.722,4.076-14.804-0.003c-1.978-1.979-3.066-4.607-3.066-7.404
		s1.089-5.426,3.067-7.404c1.978-1.978,4.606-3.066,7.402-3.066c2.797,0,5.426,1.089,7.403,3.066l0.001,0.001
		c1.978,1.978,3.066,4.606,3.066,7.403c0,2.795-1.088,5.423-3.064,7.401C110.408,289.445,110.406,289.446,110.405,289.447z"/>
	<path d="M340.997,206.406c-20.202,0-39.196,7.868-53.481,22.153c-14.286,14.286-22.154,33.28-22.154,53.482
		c0,20.203,7.868,39.197,22.153,53.482c14.286,14.286,33.28,22.154,53.482,22.154c20.203,0,39.197-7.868,53.482-22.153
		c14.286-14.286,22.154-33.28,22.154-53.483c0-20.202-7.868-39.196-22.153-53.481C380.194,214.274,361.2,206.406,340.997,206.406z
		 M385.994,327.04c-12.019,12.02-27.999,18.639-44.997,18.639c-16.997,0-32.978-6.619-44.997-18.64
		c-12.02-12.019-18.639-27.999-18.639-44.997c0-16.997,6.619-32.978,18.639-44.996c0-0.001,0-0.001,0.001-0.001
		c12.019-12.02,27.999-18.639,44.996-18.639c14.982,0,29.169,5.148,40.554,14.598l-29.492,29.492
		c-3.339-1.896-7.118-2.924-11.062-2.924c-6.002,0-11.645,2.337-15.889,6.581c0,0,0,0-0.001,0.001
		c-4.244,4.244-6.581,9.887-6.581,15.889s2.337,11.645,6.582,15.889c4.243,4.244,9.886,6.582,15.889,6.582
		c6.002,0,11.645-2.338,15.888-6.582c4.245-4.244,6.582-9.887,6.582-15.889c0-3.945-1.027-7.724-2.924-11.063l29.492-29.492
		c9.45,11.385,14.598,25.572,14.598,40.553C404.634,299.04,398.015,315.021,385.994,327.04z M348.401,274.64
		c1.978,1.978,3.066,4.606,3.066,7.403s-1.089,5.426-3.066,7.404c-4.083,4.081-10.723,4.082-14.808,0
		c-1.978-1.979-3.066-4.607-3.066-7.404s1.089-5.426,3.066-7.403l0.001-0.001c1.978-1.978,4.606-3.066,7.403-3.066
		C343.794,271.572,346.423,272.661,348.401,274.64z"/>
	<path d="M179,208.5h86c3.313,0,6-2.687,6-6s-2.687-6-6-6h-86c-3.313,0-6,2.687-6,6S175.687,208.5,179,208.5z"/>
	<path d="M252.5,222.9h-61c-3.313,0-6,2.687-6,6s2.687,6,6,6h61c3.313,0,6-2.687,6-6S255.813,222.9,252.5,222.9z"/>
	<path d="M247.5,249.3h-51c-3.313,0-6,2.687-6,6s2.687,6,6,6h51c3.313,0,6-2.687,6-6S250.813,249.3,247.5,249.3z"/>
	<path d="M247.5,328.5h-51c-3.313,0-6,2.687-6,6s2.687,6,6,6h51c3.313,0,6-2.687,6-6S250.813,328.5,247.5,328.5z"/>
	<path d="M199,287.7h46c3.313,0,6-2.687,6-6s-2.687-6-6-6h-46c-3.313,0-6,2.687-6,6S195.687,287.7,199,287.7z"/>
	<path d="M199,314.1h46c3.313,0,6-2.687,6-6s-2.687-6-6-6h-46c-3.313,0-6,2.687-6,6S195.687,314.1,199,314.1z"/>
	<path d="M40,363.5c-3.313,0-6,2.687-6,6v18c0,3.313,2.687,6,6,6s6-2.687,6-6v-18C46,366.187,43.313,363.5,40,363.5z"/>
	<path d="M64,363.5c-3.313,0-6,2.687-6,6v18c0,3.313,2.687,6,6,6s6-2.687,6-6v-18C70,366.187,67.313,363.5,64,363.5z"/>
	<path d="M153.333,363.5c-3.313,0-6,2.687-6,6v18c0,3.313,2.687,6,6,6s6-2.687,6-6v-18C159.333,366.187,156.646,363.5,153.333,363.5
		z"/>
	<path d="M177.333,363.5c-3.313,0-6,2.687-6,6v18c0,3.313,2.687,6,6,6s6-2.687,6-6v-18C183.333,366.187,180.646,363.5,177.333,363.5
		z"/>
	<path d="M380,363.5c-3.313,0-6,2.687-6,6v18c0,3.313,2.687,6,6,6s6-2.687,6-6v-18C386,366.187,383.313,363.5,380,363.5z"/>
	<path d="M404,363.5c-3.313,0-6,2.687-6,6v18c0,3.313,2.687,6,6,6s6-2.687,6-6v-18C410,366.187,407.313,363.5,404,363.5z"/>
	<path d="M266.667,363.5c-3.313,0-6,2.687-6,6v18c0,3.313,2.687,6,6,6s6-2.687,6-6v-18C272.667,366.187,269.98,363.5,266.667,363.5z
		"/>
	<path d="M290.667,363.5c-3.313,0-6,2.687-6,6v18c0,3.313,2.687,6,6,6s6-2.687,6-6v-18C296.667,366.187,293.98,363.5,290.667,363.5z
		"/>
	<path d="M41.892,169.289c11.579,0,21-9.421,21-21s-9.421-21-21-21s-21,9.421-21,21S30.313,169.289,41.892,169.289z M41.892,139.289
		c4.963,0,9,4.037,9,9s-4.037,9-9,9s-9-4.037-9-9S36.929,139.289,41.892,139.289z"/>
	<path d="M90.924,169.289c11.579,0,21-9.421,21-21s-9.421-21-21-21s-21,9.421-21,21S79.345,169.289,90.924,169.289z M90.924,139.289
		c4.963,0,9,4.037,9,9s-4.037,9-9,9s-9-4.037-9-9S85.961,139.289,90.924,139.289z"/>
	<path d="M219.924,169.289c11.579,0,21-9.421,21-21s-9.421-21-21-21s-21,9.421-21,21S208.345,169.289,219.924,169.289z
		 M219.924,139.289c4.963,0,9,4.037,9,9s-4.037,9-9,9s-9-4.037-9-9S214.961,139.289,219.924,139.289z"/>
	<path d="M396,170.789h18c3.313,0,6-2.687,6-6v-33c0-3.313-2.687-6-6-6h-18c-3.313,0-6,2.687-6,6v33
		C390,168.103,392.687,170.789,396,170.789z M402,137.789h6v21h-6V137.789z"/>
	<path d="M284,170.789h18c3.313,0,6-2.687,6-6v-33c0-3.313-2.687-6-6-6h-18c-3.313,0-6,2.687-6,6v33
		C278,168.103,280.687,170.789,284,170.789z M290,137.789h6v21h-6V137.789z"/>
	<path d="M358.667,170.789h18c3.313,0,6-2.687,6-6v-33c0-3.313-2.687-6-6-6h-18c-3.313,0-6,2.687-6,6v33
		C352.667,168.103,355.354,170.789,358.667,170.789z M364.667,137.789h6v21h-6V137.789z"/>
	<path d="M321.333,170.789h18c3.313,0,6-2.687,6-6v-33c0-3.313-2.687-6-6-6h-18c-3.313,0-6,2.687-6,6v33
		C315.333,168.103,318.02,170.789,321.333,170.789z M327.333,137.789h6v21h-6V137.789z"/>
</g>
</svg>